# xmcd
#
# Track frame offsets:
#	150
#	19979
#	39982
#	56316
#	74888
#	90261
#	107758
#	126010
#	141152
#	161705
#	181017
#	199091
#	217574
#	235430
#	248276
#	262838
#
# Disc length: 3858 seconds
#
# Revision: 0
# Processed by: cddbd v1.4PL0 Copyright (c) Steve Scherf et al.
# Submitted via: EasyCDDAExtractor 5.0.5.1
#
DISCID=ce0f1010
DTITLE=Various Artist - Jan.
DYEAR=2003
DGENRE=pop
TTITLE0=3x me poljubi
TTITLE1=Stavi na moje srce
TTITLE2=Tvoj song
TTITLE3=Kamen s srca
TTITLE4=Prave karte
TTITLE5=Bodi gola
TTITLE6=Pavza
TTITLE7=Te ni
TTITLE8=Bolezen
TTITLE9=Savana
TTITLE10=Tebe imam
TTITLE11= Bela noc
TTITLE12=Bodi gola (RSL edit)
TTITLE13=Vse je OK
TTITLE14=Jan Plestenjak - Un amor una verdad (instrumental)
TTITLE15=Tvoj song (DJ Time remix)
EXTD=
EXTT0=
EXTT1=
EXTT2=
EXTT3=
EXTT4=
EXTT5=
EXTT6=
EXTT7=
EXTT8=
EXTT9=
EXTT10=
EXTT11=
EXTT12=
EXTT13=
EXTT14=
EXTT15=
PLAYORDER=
